<?xml version="1.0" encoding="UTF-8" standalone="no"?>
<svg
   width="1122.5197"
   height="793.70081"
   viewBox="0 0 296.99998 210.00001"
   version="1.1"
   id="svg5848"
   sodipodi:docname="Fukubo.svg"
   inkscape:version="1.1 (c68e22c387, 2021-05-23)"
   inkscape:export-filename="C:\Users\Daniel\Documents\Daniel\Programacion\Proyecto 11\Imagenes\Fukubo.png"
   inkscape:export-xdpi="96"
   inkscape:export-ydpi="96"
   xmlns:inkscape="http://www.inkscape.org/namespaces/inkscape"
   xmlns:sodipodi="http://sodipodi.sourceforge.net/DTD/sodipodi-0.dtd"
   xmlns:xlink="http://www.w3.org/1999/xlink"
   xmlns="http://www.w3.org/2000/svg"
   xmlns:svg="http://www.w3.org/2000/svg"
   xmlns:rdf="http://www.w3.org/1999/02/22-rdf-syntax-ns#"
   xmlns:cc="http://creativecommons.org/ns#"
   xmlns:dc="http://purl.org/dc/elements/1.1/">
  <defs
     id="defs5842">
    <linearGradient
       inkscape:collect="always"
       xlink:href="#linearGradient19977"
       id="linearGradient20871"
       x1="403.35901"
       y1="-36.686996"
       x2="553.73401"
       y2="111.813"
       gradientUnits="userSpaceOnUse" />
    <linearGradient
       inkscape:collect="always"
       id="linearGradient19977">
      <stop
         style="stop-color:#000000;stop-opacity:1"
         offset="0"
         id="stop19973" />
      <stop
         style="stop-color:#808080;stop-opacity:1"
         offset="0.27348343"
         id="stop21483" />
      <stop
         style="stop-color:#ffffff;stop-opacity:1"
         offset="1"
         id="stop19975" />
    </linearGradient>
    <linearGradient
       inkscape:collect="always"
       xlink:href="#linearGradient4538"
       id="linearGradient21895"
       x1="499.35901"
       y1="107.688"
       x2="470.48401"
       y2="-16.062002"
       gradientUnits="userSpaceOnUse" />
    <linearGradient
       inkscape:collect="always"
       id="linearGradient4538">
      <stop
         style="stop-color:#aaaaaa;stop-opacity:1"
         offset="0"
         id="stop4532" />
      <stop
         style="stop-color:#a66f37;stop-opacity:1"
         offset="0.82420814"
         id="stop4534" />
      <stop
         style="stop-color:#bd7b25;stop-opacity:1"
         offset="1"
         id="stop4536" />
    </linearGradient>
  </defs>
  <sodipodi:namedview
     id="base"
     pagecolor="#ffffff"
     bordercolor="#666666"
     borderopacity="1.0"
     inkscape:pageopacity="0.0"
     inkscape:pageshadow="2"
     inkscape:zoom="0.35"
     inkscape:cx="522.85714"
     inkscape:cy="477.14286"
     inkscape:document-units="px"
     inkscape:current-layer="layer1"
     inkscape:document-rotation="0"
     showgrid="true"
     units="px"
     inkscape:window-width="1366"
     inkscape:window-height="705"
     inkscape:window-x="-8"
     inkscape:window-y="-8"
     inkscape:window-maximized="1"
     inkscape:pagecheckerboard="0">
    <inkscape:grid
       type="xygrid"
       id="grid209" />
  </sodipodi:namedview>
  <metadata
     id="metadata5845">
    <rdf:RDF>
      <cc:Work
         rdf:about="">
        <dc:format>image/svg+xml</dc:format>
        <dc:type
           rdf:resource="http://purl.org/dc/dcmitype/StillImage" />
        <dc:title />
      </cc:Work>
    </rdf:RDF>
  </metadata>
  <g
     inkscape:label="Capa 1"
     inkscape:groupmode="layer"
     id="layer1">
    <g
       id="g3369"
       style="isolation:isolate;stroke-width:0.384615"
       transform="matrix(0.91722222,0,0,0.91722222,-290.25088,61.14034)">
      <path
         style="color:#000000;fill:url(#linearGradient20871);fill-opacity:1;stroke-width:0.288462;stroke-linejoin:round;-inkscape-stroke:none"
         d="m 477.984,112.188 c 41.42136,0 75,-33.57864 75,-75 0,-41.42136 -33.57864,-75 -75,-75 57.28932,46.125 24.10643,94.48019 22.5,97.5 -1.60643,3.01981 -45,43.03932 -97.5,-22.5 0,41.42136 33.57864,75 75,75 z"
         id="path406"
         sodipodi:nodetypes="ssczcs" />
      <path
         style="isolation:isolate;fill:url(#linearGradient21895);fill-opacity:1;stroke:none;stroke-width:0.288462px;stroke-linecap:butt;stroke-linejoin:miter;stroke-opacity:1"
         d="m 453.59616,8.7971081 c 8.65668,-10.6526247 32.2427,-16.0946675 39.90367,-16.6091106 0.87833,0.783815 -2.16094,2.0940659 -1.52176,3.0475395 9.44031,-2.719159 23.94537,-5.266835 30.43501,1.6761457 -9.83867,2.37203338 -25.06363,6.1257538 -29.32065,9.9212211 -0.58409,0.228882 3.80926,-2.9873228 7.46074,-3.768122 16.33783,3.9072219 20.61914,20.7039572 24.04965,27.5481552 18.97968,46.749527 6.1407,62.410984 -4.52275,68.440341 -25.65156,17.211692 -61.49999,17.249992 -86.99999,-2.25 -0.49972,-8.591783 0.9863,-17.677101 3.60775,-24.007759 2.87373,-6.939857 14.11494,-9.387591 16.57017,-16.456732 1.42627,-4.106532 2.43933,-10.927719 -1.85992,-12.799691 -2.88224,0.09432 -2.8571,-0.03122 -5.13618,0.308257 -4.54633,0.677192 -3.71982,3.354748 -7.54507,6.548722 -3.45166,-10.079624 1.83332,-20.585917 4.90343,-22.704199 3.78835,-3.076934 6.70058,-4.729486 8.45416,-8.075994 1.72241,-3.287042 -0.86152,-7.886013 1.52174,-10.8187739 z"
         id="path3318-9"
         sodipodi:nodetypes="ccccccccccccscccc" />
    </g>
  </g>
</svg>
