<?xml version="1.0" encoding="UTF-8" standalone="no"?>
<!-- Created with Inkscape (http://www.inkscape.org/) -->

<svg
   width="1120"
   height="800"
   viewBox="0 0 296.33332 211.66667"
   version="1.1"
   id="svg5"
   inkscape:version="1.1 (c68e22c387, 2021-05-23)"
   sodipodi:docname="ilus4.svg"
   xmlns:inkscape="http://www.inkscape.org/namespaces/inkscape"
   xmlns:sodipodi="http://sodipodi.sourceforge.net/DTD/sodipodi-0.dtd"
   xmlns:xlink="http://www.w3.org/1999/xlink"
   xmlns="http://www.w3.org/2000/svg"
   xmlns:svg="http://www.w3.org/2000/svg">
  <sodipodi:namedview
     id="namedview7"
     pagecolor="#ffffff"
     bordercolor="#666666"
     borderopacity="1.0"
     inkscape:pageshadow="2"
     inkscape:pageopacity="0.0"
     inkscape:pagecheckerboard="0"
     inkscape:document-units="px"
     showgrid="false"
     units="px"
     width="1120px"
     inkscape:snap-global="false"
     showguides="false"
     inkscape:zoom="0.44542649"
     inkscape:cx="704.94236"
     inkscape:cy="370.4315"
     inkscape:window-width="1366"
     inkscape:window-height="705"
     inkscape:window-x="-8"
     inkscape:window-y="-8"
     inkscape:window-maximized="1"
     inkscape:current-layer="layer1">
    <inkscape:grid
       type="xygrid"
       id="grid9" />
  </sodipodi:namedview>
  <defs
     id="defs2">
    <linearGradient
       inkscape:collect="always"
       id="linearGradient72223">
      <stop
         style="stop-color:#585050;stop-opacity:1;"
         offset="0"
         id="stop72219" />
      <stop
         style="stop-color:#30271a;stop-opacity:0.30980393"
         offset="1"
         id="stop72221" />
    </linearGradient>
    <linearGradient
       inkscape:collect="always"
       id="linearGradient68341">
      <stop
         style="stop-color:#9b7d57;stop-opacity:1;"
         offset="0"
         id="stop68337" />
      <stop
         style="stop-color:#000000;stop-opacity:0"
         offset="1"
         id="stop68339" />
    </linearGradient>
    <linearGradient
       inkscape:collect="always"
       id="linearGradient67749">
      <stop
         style="stop-color:#bd9332;stop-opacity:1;"
         offset="0"
         id="stop67745" />
      <stop
         style="stop-color:#000000;stop-opacity:1"
         offset="1"
         id="stop67747" />
    </linearGradient>
    <linearGradient
       inkscape:collect="always"
       id="linearGradient65697">
      <stop
         style="stop-color:#9e8351;stop-opacity:1;"
         offset="0"
         id="stop65693" />
      <stop
         style="stop-color:#000000;stop-opacity:1"
         offset="1"
         id="stop65695" />
    </linearGradient>
    <linearGradient
       inkscape:collect="always"
       xlink:href="#linearGradient65697"
       id="linearGradient65699"
       x1="38.497154"
       y1="252.47691"
       x2="43.19445"
       y2="281.25555"
       gradientUnits="userSpaceOnUse" />
    <linearGradient
       inkscape:collect="always"
       xlink:href="#linearGradient65697"
       id="linearGradient66511"
       x1="50.535694"
       y1="267.56259"
       x2="32.819016"
       y2="277.065"
       gradientUnits="userSpaceOnUse" />
    <linearGradient
       inkscape:collect="always"
       xlink:href="#linearGradient65697"
       id="linearGradient66967"
       x1="38.497154"
       y1="252.47691"
       x2="43.19445"
       y2="281.25555"
       gradientUnits="userSpaceOnUse" />
    <linearGradient
       inkscape:collect="always"
       xlink:href="#linearGradient65697"
       id="linearGradient67487"
       x1="50.535694"
       y1="267.56259"
       x2="36.611622"
       y2="273.80704"
       gradientUnits="userSpaceOnUse" />
    <linearGradient
       inkscape:collect="always"
       xlink:href="#linearGradient67749"
       id="linearGradient67751"
       x1="45.755867"
       y1="251.04674"
       x2="49.396297"
       y2="269.09262"
       gradientUnits="userSpaceOnUse" />
    <linearGradient
       inkscape:collect="always"
       xlink:href="#linearGradient67749"
       id="linearGradient68207"
       x1="58.601917"
       y1="251.32855"
       x2="64.924133"
       y2="264.76697"
       gradientUnits="userSpaceOnUse" />
    <linearGradient
       inkscape:collect="always"
       xlink:href="#linearGradient68341"
       id="linearGradient68343"
       x1="221.67131"
       y1="1000.8574"
       x2="221.74161"
       y2="1168.4585"
       gradientUnits="userSpaceOnUse" />
    <linearGradient
       inkscape:collect="always"
       xlink:href="#linearGradient72223"
       id="linearGradient72225"
       x1="40.334114"
       y1="265.28842"
       x2="75.912384"
       y2="309.0899"
       gradientUnits="userSpaceOnUse" />
  </defs>
  <g
     inkscape:label="Capa 1"
     inkscape:groupmode="layer"
     id="layer1">
    <g
       id="g65604"
       transform="matrix(2.3256959,0,0,2.3205876,7.4202735,-537.92107)"
       style="stroke-width:0.430449">
      <path
         id="rect1367"
         style="font-variation-settings:normal;opacity:1;fill:url(#linearGradient68343);fill-opacity:1;fill-rule:evenodd;stroke:none;stroke-width:4.30449;stroke-linecap:butt;stroke-linejoin:round;stroke-miterlimit:4;stroke-dasharray:none;stroke-dashoffset:0;stroke-opacity:1;stop-color:#000000;stop-opacity:1"
         d="m 160,1000 c -5.53997,0 -10,4.46 -10,10 v 150 c 0,5.54 4.46003,10 10,10 h 120 c 5.53997,0 10,-4.46 10,-10 v -150 c 0,-5.54 -4.46003,-10 -10,-10 z m 11,11.5 a 9.5000003,9.5000003 0 0 1 9.5,9.5 9.5000003,9.5000003 0 0 1 -9.5,9.5 9.5000003,9.5000003 0 0 1 -9.5,-9.5 9.5000003,9.5000003 0 0 1 9.5,-9.5 z"
         transform="scale(0.26458333)" />
      <text
         xml:space="preserve"
         style="font-style:normal;font-weight:normal;font-size:10.5833px;line-height:13.2292px;font-family:sans-serif;fill:#61480e;fill-opacity:1;stroke:#b08230;stroke-width:0.113889;stroke-linejoin:round;stroke-miterlimit:4;stroke-dasharray:none;stroke-dashoffset:0;stroke-opacity:1"
         x="44.415894"
         y="290.82977"
         id="text8574"><tspan
           sodipodi:role="line"
           id="tspan8572"
           style="font-style:normal;font-variant:normal;font-weight:normal;font-stretch:normal;font-size:10.5833px;font-family:'Bauhaus 93';-inkscape-font-specification:'Bauhaus 93, Normal';font-variant-ligatures:normal;font-variant-caps:normal;font-variant-numeric:normal;font-variant-east-asian:normal;fill:#61480e;fill-opacity:1;stroke:#b08230;stroke-width:0.113889;stroke-linejoin:round;stroke-miterlimit:4;stroke-dasharray:none;stroke-dashoffset:0;stroke-opacity:1"
           x="44.415894"
           y="290.82977">www.</tspan></text>
      <path
         style="fill:url(#linearGradient65699);fill-opacity:1;stroke:url(#linearGradient66967);stroke-width:0.113889px;stroke-linecap:butt;stroke-linejoin:miter;stroke-opacity:1"
         d="m 41.010416,251.48645 h 35.71875 v 5.29167 h -35.71875 c 0,0 -5.291667,0 -5.291667,5.29167 0,5.29167 5.291667,5.29166 5.291667,5.29166 v 5.29167 c 0,0 -10.583333,0 -10.583333,-10.58333 0,-10.58334 10.583333,-10.58334 10.583333,-10.58334 z"
         id="path19698"
         sodipodi:nodetypes="cccczcczc" />
      <path
         id="rect16159"
         style="font-variation-settings:normal;opacity:1;vector-effect:none;fill:url(#linearGradient72225);fill-opacity:1;fill-rule:evenodd;stroke:none;stroke-width:0.113889;stroke-linecap:butt;stroke-linejoin:round;stroke-miterlimit:4;stroke-dasharray:none;stroke-dashoffset:0;stroke-opacity:1;-inkscape-stroke:none;stop-color:#000000;stop-opacity:1"
         d="m 42.339386,264.58333 c -1.465784,0 -2.645833,1.12104 -2.645833,2.51354 v 4.49792 c 0,0.63675 -0.01362,1.11228 0,1.46915 v 33.85273 c 0,1.46579 1.180049,2.64583 2.645833,2.64583 h 31.75 c 1.465784,0 2.645833,-1.18004 2.645833,-2.64583 v -39.6875 c 0,-1.4658 -1.180049,-2.64584 -2.645833,-2.64584 H 46.572719 Z m 6.883818,1.32292 h 23.543265 c 1.465784,0 2.645833,1.18004 2.645833,2.64583 v 37.04167 c 0,1.46579 -1.180049,2.64583 -2.645833,2.64583 H 43.662303 c -1.465784,0 -2.645833,-1.18004 -2.645833,-2.64583 v -31.47923 c 0.344826,0.003 0.778213,-0.006 1.322916,-0.006 h 4.233333 c 1.465784,0 2.645834,-1.12104 2.645834,-2.51354 v -4.49792 c 0,-0.48455 0.0096,-0.87487 0.0047,-1.19062 z m -3.973401,0.39687 a 3.8364585,3.8364578 0 0 0 -0.286803,0.0108 3.8364585,3.8364578 0 0 0 -0.284739,0.032 3.8364585,3.8364578 0 0 0 -1.589567,0.62373 3.8364585,3.8364578 0 0 0 -0.230476,0.17002 c 0.07467,-0.0596 0.151411,-0.11602 0.230476,-0.17002 0.466379,-0.31856 1.006404,-0.53665 1.589567,-0.62373 0.09376,-0.014 0.188888,-0.025 0.284739,-0.032 0.09473,-0.007 0.190285,-0.0108 0.286803,-0.0108 z m 0.316259,0.0129 c 0.02606,0.002 0.05212,0.005 0.07803,0.007 a 3.8364585,3.8364578 0 0 0 -0.07803,-0.007 z m 0.273886,0.0326 c 0.466418,0.072 0.904647,0.22809 1.299662,0.45217 0.02857,0.0162 0.05716,0.0327 0.08526,0.0496 0.02826,0.017 0.05594,0.0345 0.08372,0.0522 0.0277,0.0177 0.05548,0.0354 0.08268,0.0538 a 3.8364585,3.8364578 0 0 0 -0.08268,-0.0538 3.8364585,3.8364578 0 0 0 -0.08372,-0.0522 3.8364585,3.8364578 0 0 0 -0.08526,-0.0496 3.8364585,3.8364578 0 0 0 -1.299662,-0.45217 z m 1.712555,0.72242 c 0.02641,0.0199 0.05216,0.0399 0.07803,0.0605 a 3.8364585,3.8364578 0 0 0 -0.07803,-0.0605 z m -4.695319,0.0698 a 3.8364585,3.8364578 0 0 0 -0.209807,0.18036 c 0.06762,-0.0625 0.137811,-0.12284 0.209807,-0.18036 z m 4.932516,0.12403 c 0.01941,0.0172 0.03882,0.0346 0.05788,0.0522 a 3.8364585,3.8364578 0 0 0 -0.05788,-0.0522 z m -5.15679,0.0697 a 3.8364585,3.8364578 0 0 0 -0.188103,0.18812 c 0.06056,-0.0649 0.123214,-0.12756 0.188103,-0.18812 z m -0.201539,0.20259 a 3.8364585,3.8364578 0 0 0 -0.18035,0.20979 c 0.05753,-0.072 0.117882,-0.14216 0.18035,-0.20979 z m 5.640999,0.005 c 0.01754,0.0191 0.03503,0.0385 0.05219,0.0579 a 3.8364585,3.8364578 0 0 0 -0.05219,-0.0579 z m -2.822567,0.0842 a 2.5135417,2.5135417 0 0 1 2.513541,2.51354 2.5135417,2.5135417 0 0 1 -2.513541,2.51354 2.5135417,2.5135417 0 0 1 -2.513542,-2.51354 2.5135417,2.5135417 0 0 1 2.513542,-2.51354 z m -2.999817,0.12195 a 3.8364585,3.8364578 0 0 0 -0.170016,0.23048 3.8364585,3.8364578 0 0 0 -0.623734,1.58956 3.8364585,3.8364578 0 0 0 -0.03204,0.28474 3.8364585,3.8364578 0 0 0 -0.01085,0.28681 3.8364585,3.8364578 0 0 0 0.01085,0.28681 3.8364585,3.8364578 0 0 0 0.03204,0.28475 3.8364585,3.8364578 0 0 0 0.623734,1.58956 3.8364585,3.8364578 0 0 0 0.170016,0.23048 c -0.05962,-0.0747 -0.116012,-0.15142 -0.170016,-0.23048 -0.318555,-0.46638 -0.536652,-1.00642 -0.623734,-1.58956 -0.014,-0.0938 -0.02495,-0.18889 -0.03204,-0.28475 -0.007,-0.0947 -0.01085,-0.19029 -0.01085,-0.28681 0,-0.0965 0.0038,-0.19208 0.01085,-0.28681 0.0071,-0.0958 0.01804,-0.19097 0.03204,-0.28474 0.08708,-0.58314 0.305179,-1.12318 0.623734,-1.58956 0.054,-0.0791 0.1104,-0.15582 0.170016,-0.23048 z m 6.007902,0.0109 c 0.02051,0.0258 0.04061,0.0516 0.06046,0.078 a 3.8364585,3.8364578 0 0 0 -0.06046,-0.078 z m 0.175183,0.23924 c 0.01834,0.0272 0.03609,0.055 0.05374,0.0827 0.01771,0.0278 0.03519,0.0554 0.05219,0.0837 0.01691,0.0281 0.0334,0.0567 0.04961,0.0852 0.224068,0.39502 0.380177,0.83325 0.452168,1.29966 a 3.8364585,3.8364578 0 0 0 -0.452168,-1.29966 3.8364585,3.8364578 0 0 0 -0.04961,-0.0852 3.8364585,3.8364578 0 0 0 -0.05219,-0.0837 3.8364585,3.8364578 0 0 0 -0.05374,-0.0827 z m 0.633037,1.7472 c 0.0026,0.0259 0.0051,0.052 0.0072,0.078 a 3.8364585,3.8364578 0 0 0 -0.0072,-0.078 z m 0.0072,0.71054 c -0.0021,0.0261 -0.0046,0.0521 -0.0072,0.078 a 3.8364585,3.8364578 0 0 0 0.0072,-0.078 z m -0.03256,0.2739 c -0.07199,0.4664 -0.2281,0.90463 -0.452168,1.29966 -0.01621,0.0286 -0.0327,0.0571 -0.04961,0.0852 -0.017,0.0283 -0.03449,0.0559 -0.05219,0.0837 -0.01765,0.0277 -0.03541,0.0555 -0.05374,0.0827 a 3.8364585,3.8364578 0 0 0 0.05374,-0.0827 3.8364585,3.8364578 0 0 0 0.05219,-0.0837 3.8364585,3.8364578 0 0 0 0.04961,-0.0852 3.8364585,3.8364578 0 0 0 0.452168,-1.29966 z m -0.722435,1.71254 c -0.01985,0.0264 -0.03995,0.0522 -0.06046,0.078 a 3.8364585,3.8364578 0 0 0 0.06046,-0.078 z m -6.067329,0.0899 a 3.8364585,3.8364578 0 0 0 0.18035,0.20979 c -0.06247,-0.0676 -0.122825,-0.1378 -0.18035,-0.20979 z m 5.873541,0.14727 c -0.01716,0.0194 -0.03465,0.0388 -0.05219,0.0579 a 3.8364585,3.8364578 0 0 0 0.05219,-0.0579 z m -5.679755,0.077 a 3.8364585,3.8364578 0 0 0 0.188103,0.18812 c -0.06489,-0.0606 -0.127545,-0.12322 -0.188103,-0.18812 z m 0.20257,0.20153 a 3.8364585,3.8364578 0 0 0 0.209807,0.18037 c -0.072,-0.0575 -0.142182,-0.1179 -0.209807,-0.18037 z m 5.2002,0.004 c -0.01905,0.0175 -0.03847,0.035 -0.05788,0.0522 a 3.8364585,3.8364578 0 0 0 0.05788,-0.0522 z m -4.989359,0.17724 a 3.8364585,3.8364578 0 0 0 0.230476,0.17002 3.8364585,3.8364578 0 0 0 1.589567,0.62373 3.8364585,3.8364578 0 0 0 0.284739,0.032 3.8364585,3.8364578 0 0 0 0.286803,0.0109 c -0.09652,0 -0.192077,-0.004 -0.286803,-0.0109 -0.09585,-0.007 -0.190976,-0.018 -0.284739,-0.032 -0.583163,-0.0871 -1.123188,-0.30517 -1.589567,-0.62373 -0.07906,-0.054 -0.15581,-0.11041 -0.230476,-0.17002 z m 4.772319,0.008 c -0.02588,0.0205 -0.05162,0.0406 -0.07803,0.0605 a 3.8364585,3.8364578 0 0 0 0.07803,-0.0605 z m -0.239263,0.17518 c -0.02721,0.0184 -0.05499,0.0361 -0.08268,0.0538 -0.02778,0.0177 -0.05545,0.0352 -0.08372,0.0522 -0.02811,0.0169 -0.05669,0.0334 -0.08526,0.0496 -0.395015,0.22407 -0.833244,0.38018 -1.299662,0.45217 a 3.8364585,3.8364578 0 0 0 1.299662,-0.45217 3.8364585,3.8364578 0 0 0 0.08526,-0.0496 3.8364585,3.8364578 0 0 0 0.08372,-0.0522 3.8364585,3.8364578 0 0 0 0.08268,-0.0538 z m -1.747181,0.63304 c -0.02591,0.003 -0.05197,0.005 -0.07803,0.007 a 3.8364585,3.8364578 0 0 0 0.07803,-0.007 z" />
      <path
         style="color:#000000;fill:url(#linearGradient66511);fill-opacity:1;stroke:url(#linearGradient67487);stroke-width:0.113889px;stroke-opacity:1;-inkscape-stroke:none"
         d="m 45.38603,266.61899 c 0,0 -2.917538,0.0242 -2.920403,3.00121 -0.0029,2.97699 2.604453,3.00861 2.604453,3.00861 0,0 2.03677,0.49823 4.483076,-3.00861 1.276549,-1.82997 2.612861,-4.70056 2.03096,-5.44372 -0.762533,-0.97386 -1.783117,1.07593 -2.812296,1.75347 -0.922665,0.6074 -3.38579,0.68904 -3.38579,0.68904 z"
         id="path17633"
         sodipodi:nodetypes="czcsssc" />
      <path
         style="fill:url(#linearGradient67751);fill-opacity:1;stroke:#d9a42a;stroke-width:0.113889px;stroke-linecap:butt;stroke-linejoin:miter;stroke-opacity:1"
         d="m 44.714583,251.35416 c 0,0 -2.726064,5.69248 0.03853,6.74688 2.61149,0.996 7.069614,-0.36989 6.879167,-1.05834 -1.188,-1.6335 -0.567696,-5.68854 -0.567696,-5.68854 0,0 -2.222424,-1.08527 -3.413333,-1.05833 -0.892269,0.0848 -2.298966,0.0472 -2.936668,1.05833 z"
         id="path19470"
         sodipodi:nodetypes="cscccc" />
      <path
         style="fill:url(#linearGradient68207);fill-opacity:1;stroke:#d9a42a;stroke-width:0.113889px;stroke-linecap:butt;stroke-linejoin:miter;stroke-opacity:1"
         d="m 57.943749,251.35416 c 0,0 -2.726063,5.69248 0.03853,6.74688 2.61149,0.996 7.069614,-0.36989 6.879167,-1.05834 -1.188,-1.6335 -0.567697,-5.68854 -0.567697,-5.68854 0,0 0.760759,-1.87148 -3.439583,-1.05833 -1.173147,0.15164 -2.910417,1.05833 -2.910417,1.05833 z"
         id="path19470-6"
         sodipodi:nodetypes="cscccc" />
      <path
         style="fill:#aaaaaa;fill-opacity:1;stroke:#cccccc;stroke-width:0.113889px;stroke-linecap:butt;stroke-linejoin:miter;stroke-opacity:1"
         d="m 35.983333,240.24166 c 0.118155,9.87267 8.536245,11.02314 20.372916,11.1125 6.084798,0.0459 20.441041,-1.42518 20.372917,-11.1125"
         id="path19468"
         sodipodi:nodetypes="csc" />
    </g>
  </g>
</svg>
